<svg class="logo__item" xmlns="http://www.w3.org/2000/svg" width="266" height="44" viewBox="0 0 266 44">
  <g fill="none" fill-rule="evenodd">
    <g fill-rule="nonzero">
      <g class="logo__text" fill="#182A3B">
        <path d="M53.201 10.24h19.651v23.68H67.58V14.56h-9.266v19.36h-5.272V10.24zM76.847 16.8h4.473v2.24c.639-.96 1.278-1.6 2.237-2.08.958-.48 1.917-.64 2.875-.64 1.278 0 2.557.32 3.515.8.959.48 1.758 1.12 2.397 2.08.639.8 1.118 1.76 1.438 2.88.32 1.12.479 2.24.479 3.52 0 1.12-.16 2.24-.48 3.36-.319 1.12-.798 2.08-1.437 2.88-.64.8-1.438 1.44-2.397 1.92-.958.48-2.077.8-3.355.8-1.118 0-2.077-.16-2.876-.64-.958-.48-1.597-1.12-2.236-1.92v8.16h-4.633V16.8zm8.627 14.08c.799 0 1.438-.16 1.917-.48.48-.32.959-.64 1.278-1.28.32-.48.48-1.12.64-1.76.159-.64.159-1.28.159-2.08 0-.64 0-1.44-.16-2.08-.16-.64-.32-1.28-.639-1.76-.32-.48-.799-.96-1.278-1.28-.48-.32-1.118-.48-1.917-.48-.799 0-1.438.16-1.917.48-.48.32-.959.8-1.278 1.28-.32.48-.48 1.12-.64 1.76-.16.64-.16 1.28-.16 2.08 0 .64 0 1.44.16 2.08.16.64.32 1.28.64 1.76.319.48.798.96 1.278 1.28.479.32 1.278.48 1.917.48zM105.125 34.4c-1.278 0-2.556-.16-3.675-.64-1.118-.48-2.077-1.12-2.716-1.92-.799-.8-1.278-1.76-1.757-2.88-.48-1.12-.64-2.4-.64-3.68 0-1.28.16-2.4.64-3.52s.958-2.08 1.757-2.88c.799-.8 1.758-1.44 2.716-1.92 1.119-.48 2.237-.64 3.515-.64 1.438 0 2.556.32 3.675.8 1.118.48 1.917 1.12 2.556 2.08.639.8 1.278 1.92 1.597 3.04.32 1.12.48 2.24.48 3.52v.96H100.97c0 1.6.48 2.56 1.118 3.36.64.64 1.758.96 3.036.96.958 0 1.757-.16 2.396-.64.64-.48 1.119-.96 1.278-1.44h4.154c-.639 2.08-1.757 3.52-3.035 4.48-1.278.48-2.876.96-4.793.96zm3.515-10.88a6.08 6.08 0 0 0-1.119-2.72c-.639-.64-1.438-.96-2.556-.96a5.95 5.95 0 0 0-1.917.32c-.48.32-.799.64-1.118.96-.32.32-.48.8-.64 1.12-.16.48-.16.8-.16 1.12h7.51v.16zM116.149 16.8h6.87l3.514 12.48h.16l3.515-12.48h6.87v17.12h-4.474V20.8h-.16l-3.674 13.12h-4.474l-3.674-13.12h-.16v13.12h-4.473V16.8zM140.592 16.8h4.634v5.92h4.473c.799 0 1.598.16 2.396.32.8.16 1.438.64 1.918 1.12.639.48.958 1.12 1.278 1.76.32.64.479 1.44.479 2.4s-.16 1.76-.48 2.56c-.319.64-.798 1.28-1.437 1.76-.64.48-1.278.8-2.077 1.12-.799.16-1.598.32-2.556.32h-8.628V16.8zm7.989 13.92c.798 0 1.597-.16 2.077-.64.479-.32.798-.96.798-1.76s-.32-1.44-.798-1.92c-.48-.32-1.279-.64-2.077-.64h-3.196v4.8h3.196v.16zM166.634 34.4c-1.278 0-2.556-.16-3.675-.64-1.118-.48-2.077-1.12-2.716-1.92-.798-.8-1.278-1.76-1.757-2.88-.48-1.12-.64-2.4-.64-3.68 0-1.28.16-2.4.64-3.52s.959-2.08 1.757-2.88c.8-.8 1.758-1.44 2.716-1.92 1.119-.48 2.237-.64 3.515-.64 1.438 0 2.556.32 3.675.8 1.118.48 1.917 1.12 2.556 2.08.64.8 1.278 1.92 1.598 3.04.32 1.12.479 2.24.479 3.52v.96H162.48c0 1.6.48 2.56 1.118 3.36.64.64 1.758.96 3.036.96.959 0 1.757-.16 2.396-.64.64-.48 1.119-.96 1.279-1.44h4.153c-.639 2.08-1.757 3.52-3.035 4.48-1.118.48-2.876.96-4.793.96zm3.675-10.88a6.08 6.08 0 0 0-1.119-2.72c-.639-.64-1.438-.96-2.556-.96a5.95 5.95 0 0 0-1.917.32c-.48.32-.799.64-1.119.96-.32.32-.479.8-.639 1.12-.16.48-.16.8-.16 1.12h7.51v.16zM177.817 16.8h4.474v2.24c.639-.96 1.278-1.6 2.237-2.08.958-.48 1.917-.64 2.875-.64 1.278 0 2.557.32 3.515.8.959.48 1.758 1.12 2.397 2.08.639.8 1.118 1.76 1.437 2.88.32 1.12.48 2.24.48 3.52 0 1.12-.16 2.24-.48 3.36-.32 1.12-.798 2.08-1.437 2.88-.64.8-1.438 1.44-2.397 1.92-.958.48-2.077.8-3.355.8-1.118 0-2.077-.16-2.876-.64-.958-.48-1.597-1.12-2.236-1.92v8.16h-4.634V16.8zm8.628 14.08c.799 0 1.438-.16 1.917-.48.48-.32.958-.64 1.278-1.28.32-.48.48-1.12.64-1.76.159-.64.159-1.28.159-2.08 0-.64 0-1.44-.16-2.08-.16-.64-.32-1.28-.639-1.76-.32-.48-.799-.96-1.278-1.28-.48-.32-1.118-.48-1.917-.48-.8 0-1.438.16-1.917.48-.48.32-.959.8-1.279 1.28-.32.48-.479 1.12-.639 1.76-.16.64-.16 1.28-.16 2.08 0 .64 0 1.44.16 2.08.16.64.32 1.28.64 1.76.319.48.798.96 1.278 1.28.479.32 1.118.48 1.917.48z"></path>
      </g>
      <path class="logo__symbol" fill="#0075C9" d="M41.379 24.8l-6.71-2.72 8.947-3.68-2.716-6.72c-.48-1.28-1.918-1.92-3.196-1.28l-6.71 2.72 3.675-8.96-6.71-2.72c-1.278-.48-2.716 0-3.196 1.28l-2.716 6.72L18.373.48l-6.71 2.72c-1.278.48-1.917 1.92-1.278 3.2l2.716 6.72-8.947-3.68-2.716 6.72c-.48 1.28 0 2.72 1.278 3.2l6.71 2.72L.48 25.76l2.716 6.72c.48 1.28 1.917 1.92 3.196 1.28l6.71-2.72L9.426 40l6.71 2.72c1.278.48 2.716 0 3.195-1.28l2.716-6.72 3.675 8.96 6.71-2.72c1.278-.48 1.917-1.92 1.278-3.2l-2.716-6.72 8.947 3.68L42.657 28c.48-1.28-.16-2.72-1.278-3.2zm-17.255 2.08l-1.917 7.84-1.917-7.84-6.87 4.16 4.154-6.88-7.828-1.92 7.828-1.92-4.154-6.88 6.87 4.16 1.917-7.84 1.917 7.84 6.87-4.16-4.154 6.88 7.829 1.92-7.829 1.92 4.154 6.88-6.87-4.16z"></path>
    </g>
    <path class="logo__text" fill="#182A3B" d="M203.496 11.152h15.648v2.56h-12.608v6.72h7.616c2.261 0 3.995.587 5.2 1.76s1.808 2.859 1.808 5.056c0 2.176-.603 3.845-1.808 5.008-1.205 1.163-2.939 1.744-5.2 1.744h-10.656V11.152zm9.664 20.288c3.328 0 4.992-1.397 4.992-4.192 0-2.837-1.664-4.256-4.992-4.256h-6.624v8.448h6.624zm11.936-20.288h3.04v11.072l11.584-11.072h3.936l-10.88 10.176L244.04 34h-3.84l-9.728-10.816-2.336 2.176V34h-3.04V11.152zm30.784 23.36c-1.77 0-3.317-.304-4.64-.912-1.323-.608-2.421-1.445-3.296-2.512s-1.53-2.325-1.968-3.776c-.437-1.45-.656-3.008-.656-4.672 0-1.664.235-3.227.704-4.688.47-1.461 1.157-2.736 2.064-3.824.907-1.088 2.032-1.947 3.376-2.576 1.344-.63 2.901-.944 4.672-.944 1.195 0 2.325.16 3.392.48 1.067.32 2.016.79 2.848 1.408a7.913 7.913 0 0 1 2.08 2.32c.555.928.917 2 1.088 3.216h-3.04c-.341-1.621-1.093-2.837-2.256-3.648-1.163-.81-2.544-1.216-4.144-1.216-1.365 0-2.533.256-3.504.768-.97.512-1.77 1.2-2.4 2.064a8.908 8.908 0 0 0-1.392 2.96 13.236 13.236 0 0 0-.448 3.456c0 1.301.15 2.533.448 3.696.299 1.163.763 2.176 1.392 3.04a6.874 6.874 0 0 0 2.416 2.064c.981.512 2.155.768 3.52.768.981 0 1.867-.165 2.656-.496a6.01 6.01 0 0 0 2.032-1.376 6.333 6.333 0 0 0 1.328-2.096c.32-.81.512-1.685.576-2.624h3.04c-.299 2.901-1.285 5.147-2.96 6.736-1.675 1.59-3.984 2.384-6.928 2.384z"></path>
  </g>
</svg>
