<?xml version="1.0" encoding="UTF-8"?>
<svg width="109px" height="109px" viewBox="0 0 109 109" version="1.1" xmlns="http://www.w3.org/2000/svg" xmlns:xlink="http://www.w3.org/1999/xlink">
    <!-- Generator: Sketch 52.2 (67145) - http://www.bohemiancoding.com/sketch -->
    <title>Group 19</title>
    <desc>Created with Sketch.</desc>
    <defs>
        <linearGradient x1="391.728076%" y1="238.43507%" x2="15.3454702%" y2="23.0289564%" id="linearGradient-1">
            <stop stop-color="#0075C9" offset="0%"></stop>
            <stop stop-color="#0075C9" offset="53.7252741%"></stop>
            <stop stop-color="#0075C9" offset="100%"></stop>
        </linearGradient>
    </defs>
    <g id="Page-1" stroke="none" stroke-width="1" fill="none" fill-rule="evenodd">
        <g id="1_s_vitrina" transform="translate(-675.000000, -883.000000)" fill-rule="nonzero">
            <g id="Group-19" transform="translate(675.000000, 883.000000)">
                <g id="Group-16" fill="url(#linearGradient-1)">
                    <circle id="Oval" cx="54.5" cy="54.5" r="54.5"></circle>
                </g>
                <g id="iconfinder_98_2530014" transform="translate(28.000000, 31.000000)" fill="#FFFFFF">
                    <path d="M47.2900552,7.63302752 L35.7969613,7.63302752 C35.1381215,0 29.5745856,0 26.5,0 C23.4254144,0 17.8618785,0 17.2030387,7.63302752 L5.70994475,7.63302752 C2.5621547,7.63302752 0,10.1284404 0,13.2110092 L0,25.7614679 C0,26.4220183 0.439226519,27.0091743 1.17127072,27.1559633 C1.4640884,27.2293578 1.75690608,27.3027523 2.12292818,27.3761468 L2.12292818,42.7889908 C2.12292818,45.6513761 4.53867403,48 7.46685083,48 L45.5331492,48 C48.461326,48 50.8770718,45.6513761 50.8770718,42.7889908 L50.8770718,27.3761468 C51.1698895,27.3027523 51.4627072,27.2293578 51.8287293,27.1559633 C52.4875691,27.0091743 53,26.4220183 53,25.7614679 L53,13.2110092 C52.9267956,10.1284404 50.4378453,7.63302752 47.2900552,7.63302752 Z M26.5,2.93577982 C30.4530387,2.93577982 32.5027624,3.44954128 32.8687845,7.63302752 L20.1312155,7.63302752 C20.4972376,3.44954128 22.5469613,2.93577982 26.5,2.93577982 Z M3.00138122,13.2110092 C3.00138122,11.7431193 4.24585635,10.5688073 5.78314917,10.5688073 L47.2900552,10.5688073 C48.8273481,10.5688073 50.0718232,11.7431193 50.0718232,13.2110092 L50.0718232,24.587156 C44.1422652,25.9082569 38.0662983,26.7155963 32.0635359,27.0091743 L32.0635359,25.1009174 C32.0635359,23.266055 30.5994475,21.7981651 28.6961326,21.7981651 L24.3038674,21.7981651 C22.4737569,21.7981651 20.9364641,23.266055 20.9364641,25.1009174 L20.9364641,27.0091743 C14.9337017,26.7155963 8.93093923,25.9082569 2.9281768,24.587156 L2.9281768,13.2110092 L3.00138122,13.2110092 Z M29.1353591,25.1009174 L29.1353591,32.146789 C29.1353591,32.3669725 28.9157459,32.5137615 28.6961326,32.5137615 L24.3038674,32.5137615 C24.0842541,32.5137615 23.8646409,32.3669725 23.8646409,32.146789 L23.8646409,25.1009174 C23.8646409,24.8807339 24.0842541,24.733945 24.3038674,24.733945 L28.6961326,24.733945 C28.9157459,24.733945 29.1353591,24.8807339 29.1353591,25.1009174 Z M47.948895,42.7889908 C47.948895,44.0366972 46.8508287,45.0642202 45.5331492,45.0642202 L7.46685083,45.0642202 C6.14917127,45.0642202 5.05110497,44.0366972 5.05110497,42.7889908 L5.05110497,27.9633028 C10.3218232,28.9908257 15.6657459,29.6513761 21.0096685,29.9449541 L21.0096685,32.146789 C21.0096685,33.9816514 22.4737569,35.4495413 24.3770718,35.4495413 L28.769337,35.4495413 C30.5994475,35.4495413 32.1367403,33.9816514 32.1367403,32.146789 L32.1367403,29.9449541 C37.4074586,29.6513761 42.7513812,28.9908257 48.0953039,27.9633028 L48.0953039,42.7889908 L47.948895,42.7889908 Z" id="Shape"></path>
                </g>
            </g>
        </g>
    </g>
</svg>